<svg width="200" height="200" viewBox="0 0 200 200" fill="none" xmlns="http://www.w3.org/2000/svg">
  <!-- Base Blue Background Circle -->
  <circle cx="100" cy="100" r="90" fill="#0052FF" opacity="0.1"/>
  
  <!-- Stylized "B" -->
  <path d="M60 40 L60 160 L120 160 Q140 160 140 140 L140 120 Q140 100 120 100 Q140 100 140 80 L140 60 Q140 40 120 40 Z" 
        fill="#0052FF" stroke="#0052FF" stroke-width="2"/>
  
  <!-- Heart/Connection Element -->
  <path d="M100 120 Q90 110 85 105 Q80 100 85 95 Q90 90 100 100 Q110 90 115 95 Q120 100 115 105 Q110 110 100 120 Z" 
        fill="#0052FF" opacity="0.8"/>
  
  <!-- Onchain Link Element (subtle) -->
  <circle cx="140" cy="60" r="8" fill="#0066FF" opacity="0.6"/>
  <circle cx="155" cy="75" r="6" fill="#0066FF" opacity="0.4"/>
</svg>
