<svg xmlns="http://www.w3.org/2000/svg" viewBox="0 0 720 540" role="img" aria-label="Ilustración CryptoMatch">
  <defs>
    <linearGradient id="g1" x1="0" y1="0" x2="1" y2="1">
      <stop offset="0%" stop-color="#f97316"/>
      <stop offset="50%" stop-color="#ef4444"/>
      <stop offset="100%" stop-color="#ec4899"/>
    </linearGradient>
    <linearGradient id="g2" x1="0" y1="0" x2="0" y2="1">
      <stop offset="0%" stop-color="#22d3ee"/>
      <stop offset="100%" stop-color="#3b82f6"/>
    </linearGradient>
    <filter id="soft" x="-50%" y="-50%" width="200%" height="200%">
      <feGaussianBlur stdDeviation="24" result="blur"/>
    </filter>
  </defs>

  <!-- halos de color -->
  <circle cx="620" cy="80" r="110" fill="url(#g1)" opacity="0.15" filter="url(#soft)"/>
  <circle cx="100" cy="480" r="140" fill="url(#g2)" opacity="0.18" filter="url(#soft)"/>

  <!-- monedas -->
  <g transform="translate(120,130)">
    <circle cx="0" cy="0" r="34" fill="url(#g1)"/>
    <circle cx="78" cy="28" r="22" fill="url(#g2)" opacity="0.9"/>
    <circle cx="-70" cy="40" r="18" fill="#a78bfa" opacity="0.85"/>
  </g>

  <!-- velas (candlesticks) -->
  <g transform="translate(180,260)">
    <g fill="#10b981">
      <rect x="0" y="-60" width="14" height="100" rx="3"/>
      <rect x="50" y="-40" width="14" height="80" rx="3"/>
      <rect x="100" y="-90" width="14" height="140" rx="3"/>
    </g>
    <g fill="#ef4444">
      <rect x="25" y="-30" width="14" height="70" rx="3"/>
      <rect x="75" y="-70" width="14" height="120" rx="3"/>
      <rect x="125" y="-20" width="14" height="60" rx="3"/>
    </g>
  </g>

  <!-- línea de tendencia -->
  <path d="M80,420 C160,390 240,360 300,370 C360,380 420,340 480,320 C540,300 600,320 660,290" fill="none" stroke="url(#g1)" stroke-width="6" stroke-linecap="round"/>

  <!-- tarjeta sutil -->
  <rect x="420" y="130" width="220" height="120" rx="18" fill="white" opacity="0.05" stroke="white" stroke-opacity="0.12"/>
  <rect x="440" y="150" width="180" height="12" rx="6" fill="white" opacity="0.2"/>
  <rect x="440" y="173" width="130" height="10" rx="5" fill="white" opacity="0.15"/>
  <rect x="440" y="194" width="100" height="10" rx="5" fill="white" opacity="0.15"/>
</svg>



